<?xml version="1.0" standalone="no"?>
<svg xmlns="http://www.w3.org/2000/svg" width="571.931467498995" height="203.5314674989949" viewBox="0 0 571.931467498995 203.5314674989949"><g fill="#00936f" color="#00936f" transform="translate(0 0) scale(8.4804779)"><svg width="24.0" height="24.0" x="0.0" y="0.0" viewBox="0 0 24 24"><title></title><circle cx="3" cy="15" r="1"></circle><circle cx="9" cy="19" r="1"></circle><circle cx="9" cy="15" r="1"></circle><circle cx="9" cy="9" r="1"></circle><circle cx="9" cy="5" r="1"></circle><circle cx="15" cy="19" r="1"></circle><circle cx="15" cy="15" r="1"></circle><circle cx="15" cy="9" r="1"></circle><circle cx="21" cy="12" r="1"></circle><circle cx="15" cy="5" r="1"></circle><circle cx="3" cy="9" r="1"></circle><path d="M4.4747,15.25H7.5253a1.2478,1.2478,0,0,1,0-.5H4.4747a1.2478,1.2478,0,0,1,0,.5Z"></path><path d="M13.5253,18.75H10.4747a1.2478,1.2478,0,0,1,0,.5h3.0506a1.2478,1.2478,0,0,1,0-.5Z"></path><path d="M19.8531,12.9551,15.768,17.7184a1.5024,1.5024,0,0,1,.3789.3265l4.0851-4.7633A1.5041,1.5041,0,0,1,19.8531,12.9551Z"></path><path d="M16.4271,14.5617l3.3686-1.6761a1.49,1.49,0,0,1-.2228-.4472l-3.3686,1.676A1.49,1.49,0,0,1,16.4271,14.5617Z"></path><path d="M4.3649,15.6147a1.5019,1.5019,0,0,1-.2795.415l3.55,2.3556a1.5019,1.5019,0,0,1,.2795-.415Z"></path><path d="M7.9146,6.03a1.5019,1.5019,0,0,1-.2795-.415L4.0854,7.97a1.5019,1.5019,0,0,1,.2795.415Z"></path><path d="M16.4271,9.4383a1.49,1.49,0,0,1-.2228.4473l3.3686,1.676a1.49,1.49,0,0,1,.2228-.4472Z"></path><path d="M15.768,6.2816l4.0851,4.7633a1.5041,1.5041,0,0,1,.3789-.3265L16.1469,5.9551A1.5024,1.5024,0,0,1,15.768,6.2816Z"></path><path d="M10.4747,5.25h3.0506a1.2478,1.2478,0,0,1,0-.5H10.4747a1.2478,1.2478,0,0,1,0,.5Z"></path><path d="M10.22,14.1335l1.78-1.78,1.78,1.78a1.5093,1.5093,0,0,1,.3535-.3535L12.3535,12l1.78-1.78a1.5093,1.5093,0,0,1-.3535-.3535L12,11.6465l-1.78-1.78a1.5093,1.5093,0,0,1-.3535.3535l1.78,1.78-1.78,1.78A1.5093,1.5093,0,0,1,10.22,14.1335Z"></path><path d="M7.5253,8.75H4.4747a1.2478,1.2478,0,0,1,0,.5H7.5253a1.2478,1.2478,0,0,1,0-.5Z"></path></svg></g><path fill="#1c2149" fill-rule="nonzero" d="M20.48 0.24L23.40 0.24L23.40 28.24L20.48 28.24L20.48 15.32L2.96 15.32L2.96 28.24L0 28.24L0 0.24L2.96 0.24L2.96 12.72L20.48 12.72L20.48 0.24ZM44 2.80L38.32 2.80L38.32 25.68L44 25.68L44 28.24L29.72 28.24L29.72 25.68L35.40 25.68L35.40 2.80L29.72 2.80L29.72 0.24L44 0.24L44 2.80ZM69.84 22.88L69.84 14.24L72.68 14.24L72.68 28.24L70.08 28.24L70.08 25.88Q68.48 27.16 66.34 27.82Q64.20 28.48 61.76 28.48L61.76 28.48Q58 28.48 54.78 26.80Q51.56 25.12 49.60 21.92Q47.64 18.72 47.64 14.32L47.64 14.32Q47.64 10.24 49.56 6.98Q51.48 3.72 54.84 1.86Q58.20 0 62.44 0L62.44 0Q65.64 0 68.32 1.02Q71 2.04 72.84 4.04L72.84 4.04L71 5.92Q67.68 2.64 62.56 2.64L62.56 2.64Q59.16 2.64 56.42 4.14Q53.68 5.64 52.12 8.32Q50.56 11 50.56 14.32L50.56 14.32Q50.56 17.88 52.14 20.50Q53.72 23.12 56.34 24.50Q58.96 25.88 61.96 25.88L61.96 25.88Q64.16 25.88 66.22 25.14Q68.28 24.40 69.84 22.88L69.84 22.88ZM100.76 22.88L100.76 14.24L103.60 14.24L103.60 28.24L101 28.24L101 25.88Q99.40 27.16 97.26 27.82Q95.12 28.48 92.68 28.48L92.68 28.48Q88.92 28.48 85.70 26.80Q82.48 25.12 80.52 21.92Q78.56 18.72 78.56 14.32L78.56 14.32Q78.56 10.24 80.48 6.98Q82.40 3.72 85.76 1.86Q89.12 0 93.36 0L93.36 0Q96.56 0 99.24 1.02Q101.92 2.04 103.76 4.04L103.76 4.04L101.92 5.92Q98.60 2.64 93.48 2.64L93.48 2.64Q90.08 2.64 87.34 4.14Q84.60 5.64 83.04 8.32Q81.48 11 81.48 14.32L81.48 14.32Q81.48 17.88 83.06 20.50Q84.64 23.12 87.26 24.50Q89.88 25.88 92.88 25.88L92.88 25.88Q95.08 25.88 97.14 25.14Q99.20 24.40 100.76 22.88L100.76 22.88ZM119.68 28.48Q116.56 28.48 113.70 27.48Q110.84 26.48 109.28 24.84L109.28 24.84L110.44 22.56Q111.96 24.08 114.48 25.02Q117 25.96 119.68 25.96L119.68 25.96Q123.44 25.96 125.32 24.58Q127.20 23.20 127.20 21L127.20 21Q127.20 19.32 126.18 18.32Q125.16 17.32 123.68 16.78Q122.20 16.24 119.56 15.60L119.56 15.60Q116.40 14.80 114.52 14.06Q112.64 13.32 111.30 11.80Q109.96 10.28 109.96 7.68L109.96 7.68Q109.96 5.56 111.08 3.82Q112.20 2.08 114.52 1.04Q116.84 0 120.28 0L120.28 0Q122.68 0 124.98 0.66Q127.28 1.32 128.96 2.48L128.96 2.48L127.96 4.84Q126.20 3.68 124.20 3.10Q122.20 2.52 120.28 2.52L120.28 2.52Q116.60 2.52 114.74 3.94Q112.88 5.36 112.88 7.60L112.88 7.60Q112.88 9.28 113.90 10.30Q114.92 11.32 116.46 11.86Q118 12.40 120.60 13.04L120.60 13.04Q123.68 13.80 125.58 14.54Q127.48 15.28 128.80 16.78Q130.12 18.28 130.12 20.84L130.12 20.84Q130.12 22.96 128.98 24.70Q127.84 26.44 125.48 27.46Q123.12 28.48 119.68 28.48L119.68 28.48Z" transform="translate(218.532 0.001) scale(2.716)"></path><path fill="#1c2149" fill-rule="nonzero" d="M0 28.24L0 0.24L11.40 0.24Q15.84 0.24 19.24 2.02Q22.64 3.80 24.52 6.98Q26.40 10.16 26.40 14.24L26.40 14.24Q26.40 18.32 24.52 21.50Q22.64 24.68 19.24 26.46Q15.84 28.24 11.40 28.24L11.40 28.24L0 28.24ZM2.96 25.68L11.24 25.68Q14.92 25.68 17.68 24.22Q20.44 22.76 21.96 20.18Q23.48 17.60 23.48 14.24L23.48 14.24Q23.48 10.88 21.96 8.30Q20.44 5.72 17.68 4.26Q14.92 2.80 11.24 2.80L11.24 2.80L2.96 2.80L2.96 25.68ZM51.92 22.80L53.04 25.04Q51.32 26.68 48.46 27.58Q45.60 28.48 42.12 28.48L42.12 28.48Q38.44 28.48 35.86 27.48Q33.28 26.48 31.98 24.72Q30.68 22.96 30.68 20.68L30.68 20.68Q30.68 18.16 32.18 16.40Q33.68 14.64 36.12 13.96L36.12 13.96Q34.12 13.20 33 11.54Q31.88 9.88 31.88 7.64L31.88 7.64Q31.88 5.52 33.10 3.78Q34.32 2.04 36.78 1.02Q39.24 0 42.72 0L42.72 0Q45.28 0 47.70 0.58Q50.12 1.16 51.84 2.24L51.84 2.24L50.92 4.60Q47.24 2.52 42.84 2.52L42.84 2.52Q38.96 2.52 36.90 4Q34.84 5.48 34.84 7.84L34.84 7.84Q34.84 10.20 36.50 11.48Q38.16 12.76 41.20 12.76L41.20 12.76L48.16 12.76L48.16 15.32L41.08 15.32Q37.64 15.32 35.64 16.62Q33.64 17.92 33.64 20.48L33.64 20.48Q33.64 23 35.82 24.48Q38 25.96 42.24 25.96L42.24 25.96Q45.20 25.96 47.76 25.12Q50.32 24.28 51.92 22.80L51.92 22.80ZM69.96 28.48Q65.80 28.48 62.46 26.64Q59.12 24.80 57.22 21.54Q55.32 18.28 55.32 14.24L55.32 14.24Q55.32 10.20 57.22 6.94Q59.12 3.68 62.48 1.84Q65.84 0 70 0L70 0Q73.12 0 75.76 1.04Q78.40 2.08 80.24 4.08L80.24 4.08L78.36 5.96Q75.08 2.64 70.08 2.64L70.08 2.64Q66.76 2.64 64.04 4.16Q61.32 5.68 59.78 8.32Q58.24 10.96 58.24 14.24L58.24 14.24Q58.24 17.52 59.78 20.16Q61.32 22.80 64.04 24.32Q66.76 25.84 70.08 25.84L70.08 25.84Q75.12 25.84 78.36 22.48L78.36 22.48L80.24 24.36Q78.40 26.36 75.74 27.42Q73.08 28.48 69.96 28.48L69.96 28.48ZM98 0Q103.44 0 106.58 3.18Q109.72 6.36 109.72 12.36L109.72 12.36L109.72 28.24L106.80 28.24L106.80 20L89.20 20L89.20 28.24L86.32 28.24L86.32 12.36Q86.32 6.36 89.46 3.18Q92.60 0 98 0L98 0ZM89.20 17.44L106.80 17.44L106.80 12.08Q106.80 7.40 104.48 5.02Q102.16 2.64 98 2.64L98 2.64Q93.84 2.64 91.52 5.02Q89.20 7.40 89.20 12.08L89.20 12.08L89.20 17.44ZM137.36 0.24L140.32 0.24L140.32 20.12Q140.32 26.12 137.20 29.28Q134.08 32.44 128.56 32.44L128.56 32.44Q125.12 32.44 122.38 31.34Q119.64 30.24 117.80 28.16L117.80 28.16L119.16 25.88Q122.72 29.80 128.56 29.80L128.56 29.80Q132.88 29.80 135.12 27.40Q137.36 25 137.36 20.20L137.36 20.20L137.36 16.44Q134.64 21.20 128.28 21.20L128.28 21.20Q123.08 21.20 120.16 18.22Q117.24 15.24 117.24 9.64L117.24 9.64L117.24 0.24L120.20 0.24L120.20 9.52Q120.20 13.96 122.40 16.26Q124.60 18.56 128.56 18.56L128.56 18.56Q132.72 18.56 135.04 16.14Q137.36 13.72 137.36 8.88L137.36 8.88L137.36 0.24Z" transform="translate(218.532 85.352) scale(2.519)"></path><path fill="#1c2149" fill-rule="nonzero" d="M14.64 28.48Q10.48 28.48 7.14 26.64Q3.80 24.80 1.90 21.54Q0 18.28 0 14.24L0 14.24Q0 10.20 1.90 6.94Q3.80 3.68 7.16 1.84Q10.52 0 14.68 0L14.68 0Q17.80 0 20.44 1.04Q23.08 2.08 24.92 4.08L24.92 4.08L23.04 5.96Q19.76 2.64 14.76 2.64L14.76 2.64Q11.44 2.64 8.72 4.16Q6 5.68 4.46 8.32Q2.92 10.96 2.92 14.24L2.92 14.24Q2.92 17.52 4.46 20.16Q6 22.80 8.72 24.32Q11.44 25.84 14.76 25.84L14.76 25.84Q19.80 25.84 23.04 22.48L23.04 22.48L24.92 24.36Q23.08 26.36 20.42 27.42Q17.76 28.48 14.64 28.48L14.64 28.48ZM31.24 28.24L31.24 0.24L34.20 0.24L34.20 25.68L49.88 25.68L49.88 28.24L31.24 28.24ZM66.24 0Q71.68 0 74.82 3.18Q77.96 6.36 77.96 12.36L77.96 12.36L77.96 28.24L75.04 28.24L75.04 20L57.44 20L57.44 28.24L54.56 28.24L54.56 12.36Q54.56 6.36 57.70 3.18Q60.84 0 66.24 0L66.24 0ZM57.44 17.44L75.04 17.44L75.04 12.08Q75.04 7.40 72.72 5.02Q70.40 2.64 66.24 2.64L66.24 2.64Q62.08 2.64 59.76 5.02Q57.44 7.40 57.44 12.08L57.44 12.08L57.44 17.44ZM94.56 28.48Q91.44 28.48 88.58 27.48Q85.72 26.48 84.16 24.84L84.16 24.84L85.32 22.56Q86.84 24.08 89.36 25.02Q91.88 25.96 94.56 25.96L94.56 25.96Q98.32 25.96 100.20 24.58Q102.08 23.20 102.08 21L102.08 21Q102.08 19.32 101.06 18.32Q100.04 17.32 98.56 16.78Q97.08 16.24 94.44 15.60L94.44 15.60Q91.28 14.80 89.40 14.06Q87.52 13.32 86.18 11.80Q84.84 10.28 84.84 7.68L84.84 7.68Q84.84 5.56 85.96 3.82Q87.08 2.08 89.40 1.04Q91.72 0 95.16 0L95.16 0Q97.56 0 99.86 0.66Q102.16 1.32 103.84 2.48L103.84 2.48L102.84 4.84Q101.08 3.68 99.08 3.10Q97.08 2.52 95.16 2.52L95.16 2.52Q91.48 2.52 89.62 3.94Q87.76 5.36 87.76 7.60L87.76 7.60Q87.76 9.28 88.78 10.30Q89.80 11.32 91.34 11.86Q92.88 12.40 95.48 13.04L95.48 13.04Q98.56 13.80 100.46 14.54Q102.36 15.28 103.68 16.78Q105 18.28 105 20.84L105 20.84Q105 22.96 103.86 24.70Q102.72 26.44 100.36 27.46Q98 28.48 94.56 28.48L94.56 28.48ZM119.16 28.48Q116.04 28.48 113.18 27.48Q110.32 26.48 108.76 24.84L108.76 24.84L109.92 22.56Q111.44 24.08 113.96 25.02Q116.48 25.96 119.16 25.96L119.16 25.96Q122.92 25.96 124.80 24.58Q126.68 23.20 126.68 21L126.68 21Q126.68 19.32 125.66 18.32Q124.64 17.32 123.16 16.78Q121.68 16.24 119.04 15.60L119.04 15.60Q115.88 14.80 114 14.06Q112.12 13.32 110.78 11.80Q109.44 10.28 109.44 7.68L109.44 7.68Q109.44 5.56 110.56 3.82Q111.68 2.08 114 1.04Q116.32 0 119.76 0L119.76 0Q122.16 0 124.46 0.66Q126.76 1.32 128.44 2.48L128.44 2.48L127.44 4.84Q125.68 3.68 123.68 3.10Q121.68 2.52 119.76 2.52L119.76 2.52Q116.08 2.52 114.22 3.94Q112.36 5.36 112.36 7.60L112.36 7.60Q112.36 9.28 113.38 10.30Q114.40 11.32 115.94 11.86Q117.48 12.40 120.08 13.04L120.08 13.04Q123.16 13.80 125.06 14.54Q126.96 15.28 128.28 16.78Q129.60 18.28 129.60 20.84L129.60 20.84Q129.60 22.96 128.46 24.70Q127.32 26.44 124.96 27.46Q122.60 28.48 119.16 28.48L119.16 28.48ZM147.52 2.80L141.84 2.80L141.84 25.68L147.52 25.68L147.52 28.24L133.24 28.24L133.24 25.68L138.92 25.68L138.92 2.80L133.24 2.80L133.24 0.24L147.52 0.24L147.52 2.80ZM164.72 2.64Q160.60 2.64 158.58 4.50Q156.56 6.36 156.56 9.88L156.56 9.88L156.56 13.80L169.92 13.80L169.92 16.36L156.56 16.36L156.56 28.24L153.60 28.24L153.60 9.84Q153.60 5.24 156.48 2.62Q159.36 0 164.60 0L164.60 0Q169.68 0 172.76 2.20L172.76 2.20L171.68 4.64Q168.96 2.64 164.72 2.64L164.72 2.64ZM189.40 2.80L183.72 2.80L183.72 25.68L189.40 25.68L189.40 28.24L175.12 28.24L175.12 25.68L180.80 25.68L180.80 2.80L175.12 2.80L175.12 0.24L189.40 0.24L189.40 2.80ZM207.68 28.48Q203.52 28.48 200.18 26.64Q196.84 24.80 194.94 21.54Q193.04 18.28 193.04 14.24L193.04 14.24Q193.04 10.20 194.94 6.94Q196.84 3.68 200.20 1.84Q203.56 0 207.72 0L207.72 0Q210.84 0 213.48 1.04Q216.12 2.08 217.96 4.08L217.96 4.08L216.08 5.96Q212.80 2.64 207.80 2.64L207.80 2.64Q204.48 2.64 201.76 4.16Q199.04 5.68 197.50 8.32Q195.96 10.96 195.96 14.24L195.96 14.24Q195.96 17.52 197.50 20.16Q199.04 22.80 201.76 24.32Q204.48 25.84 207.80 25.84L207.80 25.84Q212.84 25.84 216.08 22.48L216.08 22.48L217.96 24.36Q216.12 26.36 213.46 27.42Q210.80 28.48 207.68 28.48L207.68 28.48ZM235.72 0Q241.16 0 244.30 3.18Q247.44 6.36 247.44 12.36L247.44 12.36L247.44 28.24L244.52 28.24L244.52 20L226.92 20L226.92 28.24L224.04 28.24L224.04 12.36Q224.04 6.36 227.18 3.18Q230.32 0 235.72 0L235.72 0ZM226.92 17.44L244.52 17.44L244.52 12.08Q244.52 7.40 242.20 5.02Q239.88 2.64 235.72 2.64L235.72 2.64Q231.56 2.64 229.24 5.02Q226.92 7.40 226.92 12.08L226.92 12.08L226.92 17.44ZM274.68 3.08L273.60 5.40Q269.48 3 264.48 2.64L264.48 2.64L264.48 28.24L261.52 28.24L261.52 2.64Q256.60 2.96 252.36 5.40L252.36 5.40L251.28 3.08Q256.48 0 262.96 0L262.96 0Q269.56 0 274.68 3.08L274.68 3.08ZM290.64 2.80L284.96 2.80L284.96 25.68L290.64 25.68L290.64 28.24L276.36 28.24L276.36 25.68L282.04 25.68L282.04 2.80L276.36 2.80L276.36 0.24L290.64 0.24L290.64 2.80ZM309.00 28.48Q304.84 28.48 301.46 26.62Q298.08 24.76 296.18 21.52Q294.28 18.28 294.28 14.24L294.28 14.24Q294.28 10.20 296.18 6.96Q298.08 3.72 301.46 1.86Q304.84 0 309.00 0L309.00 0Q313.16 0 316.50 1.84Q319.84 3.68 321.76 6.94Q323.68 10.20 323.68 14.24L323.68 14.24Q323.68 18.28 321.76 21.54Q319.84 24.80 316.50 26.64Q313.16 28.48 309.00 28.48L309.00 28.48ZM309.00 25.84Q312.32 25.84 315.00 24.34Q317.68 22.84 319.20 20.18Q320.72 17.52 320.72 14.24L320.72 14.24Q320.72 10.96 319.20 8.30Q317.68 5.64 315.00 4.14Q312.32 2.64 309.00 2.64L309.00 2.64Q305.68 2.64 302.98 4.14Q300.28 5.64 298.74 8.30Q297.20 10.96 297.20 14.24L297.20 14.24Q297.20 17.52 298.74 20.18Q300.28 22.84 302.98 24.34Q305.68 25.84 309.00 25.84L309.00 25.84ZM342.64 0Q347.68 0 350.54 3Q353.40 6 353.40 11.56L353.40 11.56L353.40 28.24L350.44 28.24L350.44 11.64Q350.44 7.20 348.24 4.92Q346.04 2.64 342.08 2.64L342.08 2.64Q337.92 2.64 335.60 5.06Q333.28 7.48 333.28 12.32L333.28 12.32L333.28 28.24L330.32 28.24L330.32 0.24L333.16 0.24L333.16 4.96Q335.84 0 342.64 0L342.64 0Z" transform="translate(218.532 175.053) scale(1)"></path></svg>